<?xml version="1.0" encoding="UTF-8"?>
<svg version="1.1" viewBox="0 0 1600 1600" width="1280" height="1280" xmlns="http://www.w3.org/2000/svg">
<path transform="translate(642,500)" d="m0 0h2l4 21 5 24 11 33 12 26 12 22 15 24 7 10 10 15 9 14 11 18 8 13 5 9v-4l-7-29-7-23-2-8 7 6 10 11 12 16 3 2-1-3v-41l2-86v-56l5 2 11 9 10 12 6 10 5 13 5 21 4 31 1 13v21h3l2-11 8-41 1-8h2l5 10 8 24 4 18 3 21 1 16v41l18-27 14-22 10-15 7-11 12-20 12-23 11-26 11-33 7-30 1-8h3l3 12 4 25 2 18v15l-4 32-5 20-7 19-10 22 8-6 13-11 18-13 11-7 29-15 15-10 15-11 13-11 13-13 11-15 4-6h2l-2 29-4 21-9 27-13 27-7 11-8 11-8 10-14 15-10 10-8 7-14 12-11 8-13 10-6 5h-2l-2 4-8 12-9 10-9 7-11 7-5 4-11 7-4 3h-2v2l15-6 24-9 25-11 20-10 7-4 35-17 23-11 26-14 10-6 19-13 16-13 8-7 6-7h2l-1 9-5 20-8 23-8 16-7 12-12 16-12 13-8 8-14 11-17 12-19 11-1 2 35-4 42-6h3l-1 3-22 4-44 5-27 2-27 4-35 5-42 9-20 6-23 8-17 9-18 13-15 15-12 18-4 7-4-1-8-14-10-13-8-7-12-10-14-9-23-11-29-9-27-6-31-6-19-3-43-5-33-3-36-5-12-3-1-3 8 1 16 3 43 5h7l-5-4-23-14-13-10-13-11-15-15-12-16-11-18-9-21-6-21-4-17v-4l4 2 9 9 19 14 17 12 22 13 16 9 14 6 12 6 26 11 12 6 9 6 17 9 21 9 15 6 11 4 8 3h3l-8-7-16-11-9-7-10-9-8-10-3-5v-2l-4-2-7-7-11-8-13-10-17-14-15-14-9-9-9-11-10-14-11-19-8-16-6-17-5-19-2-14-2-25v-8l5 5 8 12 7 9 9 10 11 11 18 13 13 8 19 10 14 8 14 10 16 12 6 5 3 1-8-18-8-25-3-15-1-8v-33l3-25 5-24zm-12 186 1 5 12 20 8 11 6 8 7 9 8 10 9 10 4 5 5 4 4 5 8 7 28 28 7 8 7 7 7 8 9 10 10 13 12 18 9 21 6 20 3 2 1-8-3-7-4-24-8-24-12-25-10-16-10-14-10-13-9-10-2-3h-2l-2-4-27-27-8-7-13-12-26-20-15-10-8-5zm338 0-11 8-16 11-13 10-20 16-14 12-13 13-10 9-9 10-8 10-13 17-11 16-12 22-9 21-5 17-2 11v14l3-3 7-19 8-16 8-11 7-9 14-16 11-12 43-43 8-9 8-7 7-8 11-13 8-10 11-15 10-17 4-6v-3z" fill="#EF8419"/>
<path transform="translate(917,931)" d="m0 0h23l19 2 31 6 17 5 24 9 27 12 24 13 12 8 17 14 13 14 8 10 17 2 17 5 9 4 4 4v4l-10 5-24 5-42 6-44 4-80 6-24 1-46 1-60 2h-97l-106-3-40-2-87-7-29-3-46-7-14-4-8-5 1-5 8-5 13-4 14-3 9-1 5-5 9-11 15-15 13-9 19-10 25-10 37-12 29-6 23-3h39l29 4 19 5 16 7 14 9 12 11 1 3-2 1-7-4-10-6-14-6-23-6-19-3-30-2-29 1-27 3-20 4-18 6-19 8-20 10-13 8-17 12-13 11-1 2 51-8 46-7 71-9 41-3h59l14 2 7-1 12-5 5-2h13l8 4 3 3v2l12-1 16-2h51l43 3 82 10 75 12 9 1v-2l-10-8-13-10-21-13-27-13-24-9-21-6-30-7-15-2-16-1h-11l-23 2-16 3-26 9-17 9-9 7-2 2h-3l1-4 6-8 8-8 16-11 16-8 18-6 17-4z" fill="#92B4D3"/>
<path transform="translate(917,931)" d="m0 0h23l19 2 31 6 17 5 24 9 27 12 24 13 12 8 17 14 13 14 10 13 10 17-1 2-12-2-16-3-21-3-47-7-98-12-50-4-47-2h-15v13l-2 1h-16l-29-1h-27v-10l-1-3h-17l-45 2-45 4-103 12-63 10-28 5h-5l4-8 9-15 7-9 8-10 16-14 11-7 17-9 25-10 37-12 29-6 23-3h39l29 4 19 5 16 7 14 9 12 11 1 3-2 1-7-4-10-6-14-6-23-6-19-3-30-2-29 1-27 3-20 4-18 6-19 8-20 10-13 8-17 12-13 11-1 2 51-8 46-7 71-9 41-3h59l14 2 7-1 12-5 5-2h13l8 4 3 3v2l12-1 16-2h51l43 3 82 10 75 12 9 1v-2l-10-8-13-10-21-13-27-13-24-9-21-6-30-7-15-2-16-1h-11l-23 2-16 3-26 9-17 9-9 7-2 2h-3l1-4 6-8 8-8 16-11 16-8 18-6 17-4z" fill="#09436A"/>
<path transform="translate(770,514)" d="m0 0 5 2 11 9 10 12 6 10 5 13 5 21 4 31 1 13v21h3l2-11 8-41 1-8h2l5 10 8 24 4 18 3 21 1 16v38l-4 11-15 27-10 19-8 18-9 24-6 20-4 4-4-8-12-36-11-25-17-34v-3l-4-18-6-23-6-19-1-5 7 6 10 11 12 16 3 2-1-3v-41l2-86z" fill="#358DB7"/>
<path transform="translate(1093,546)" d="m0 0h2l-2 29-4 21-9 27-13 27-7 11-8 11-8 10-14 15-10 10-8 7-14 12-11 8-13 10-6 5h-2l-2 4-8 12-9 10-9 7-11 7-5 4-11 7-6 4-4 4-3 1-1 2-11 6-4 1v2l-10 6-13 10-8 6-12 12-15 20-9 14-6 9-2-1 1-8 7-15 5-9 12-17 5-6h2l2-4 7-8 11-12 43-43 9-10 7-6 7-8 11-13 8-10 11-15 10-17 5-7 1-3-2-1h2l2-5v-2l-2 1-1-5-5-2-2-3v-7l2-5 2-1 2-7 5-5 5-3 7-9 28-15 11-6 15-10 12-9 13-11 13-13 11-15z" fill="#9C372A"/>
<path transform="translate(958,500)" d="m0 0 3 3 5 27 3 26v15l-4 32-5 20-7 19-12 25-7 7-7 6h-2l-2 4-6 5-21 21-9 12h-2l-2 4-7 8-4 4-6 9h-2l-2 4-7 11h-2l-2 5-1 2h-2l-4 8h-2l-2 6-6 9h-2l-2 6-10 19-7 18-3 10-4 8-4 14h-3l-3-5-7-19v-4h-2l-5-13-4-7-5-9-4-5-5-4-3-8h-4l-2-6 1-4-2-4-6-8-9-13-5-5-8-11-6-10-4-8v-8h3v-3l6-2 1 2 6 3 4 1 3-1 1 3h2l5 9 4 6v-5h2l22 44 8 19 14 41 2 2 3-5 5-18 11-29 15-31 12-21 6-11 2-4 4-4 9-14 15-23 7-11 11-17 7-11 9-15 12-23 11-26 11-33 7-30 1-8z" fill="#BD4922"/>
<path transform="translate(455,678)" d="m0 0 4 2 9 9 19 14 17 12 22 13 16 9 14 6 12 6 26 11 3 2 5 13 14 19 13 13 15 11 20 12 26 14 20 11 3 4-36-9-35-7-25-4-43-5-33-3-36-5-12-3-1-3 8 1 16 3 43 5h7l-5-4-23-14-13-10-13-11-15-15-12-16-11-18-9-21-6-21-4-17z" fill="#568491"/>
<path transform="translate(481,844)" d="m0 0 20 8 22 5 42 4 40 4 56 8 23 5 30 8 24 9 16 9 12 9 8 7 9 11 4 8 5 15 1 7v11l-8 4-4-1-12-16-9-10-13-10-13-8-19-9-23-6-19-3-10-1h-18l-17 2-29 6-21 7-15 6-19 10-16 9-9 6v-3l21-14 19-11 16-7-1-3-15-9-16-10-16-11-14-11-12-10-7-8-10-11-3-4z" fill="#08436A"/>
<path transform="translate(1139,677)" d="m0 0h2l-1 9-5 20-8 23-8 16-7 12-12 16-12 13-8 8-14 11-17 12-19 11-1 2 35-4 42-6h3l-1 3-22 4-44 5-27 2-27 4-35 5-42 9-20 6-3-1 12-7 18-10 25-13 16-10 14-12 9-8 11-14 8-13 3-9 27-13 23-11 26-14 10-6 19-13 16-13 8-7z" fill="#0F6591"/>
<path transform="translate(1116,844)" d="m0 0h2l-2 5-16 17-10 10-17 13-10 7-11 7-19 12-7 4h-2l5 5 16 7 16 10 11 8h-3l-18-10-16-8-19-9-35-11-22-4-7-1h-32l-20 3-18 6-13 6-12 7-9 7-10 8-9 10-9 13-5 8-6-1-3-2 1-13 4-13 5-12 9-11 9-9 14-10 15-8 28-10 39-10 37-6 44-6 61-6 27-6 16-6z" fill="#09436A"/>
<path transform="translate(1e3 762)" d="m0 0 3 1-7 14-10 14-12 13-11 9-12 9-23 13-20 10-20 12h-2v2l-20 7-17 9-18 13-15 15-10 14-3 2-5-1v-11l-3-7-2-12v-5l1 2 4 1 2 3 1 13 3-8 3 2 8-13 12-17 11-14 14-14 14-10 5-4 7-4h2v-2l11-6 4-1 1-3 6-2 1-2 11-3 12-5 18-7 23-10 20-10 7-4z" fill="#EF8419"/>
<path transform="translate(953,522)" d="m0 0 2 3 1 10h-2l1 3v8l-3 11-2 7-5 15-1 5-1 8-4 9-5 13-5 11h-2l-1 5-8 14-3 6h-2l-1 4-7 12-5 6-7 9-6 9-15 20-1 2h-3l-1 4-3 8h-2l-2 6-7 10-3 3-3 7-8 12-2 4h-2l-1 4-3 7h-2l-1 5-5 9-5 13-10 22-3 9-5 6h-4l3 10 6-1 5-10 1 2-5 11-4 14h-3l-3-5-7-19v-4h-2l-5-13-4-7-5-9-4-5-5-4-3-8h-4l-2-6 1-4-2-4-6-8-9-13-5-5-8-11-6-10-4-8v-8h3v-3l6-2 1 2 6 3 4 1 3-1 1 3h2l5 9 4 6v-5h2l22 44 8 19 14 41 2 2 3-5 5-18 11-29 15-31 12-21 6-11 2-4 4-4 9-14 15-23 7-11 11-17 7-11 9-15 12-23 11-26 11-33z" fill="#C16018"/>
<path transform="translate(597,762)" d="m0 0 7 3 13 8 15 8 21 9 15 6 11 4 8 3 5-1 12 6 9 6 11 6v2l4 2 11 8 10 10 8 7 8 10 4 6v2h2l7 12 8 11 3 1 1-3 6 18 3 8 1 4h5 3l-6 10-4-1-8-14-10-13-8-7-12-10-14-9-23-11-10-4-5-4-14-8-14-7-18-10-21-13-14-11-13-13-13-18-4-9z" fill="#F69F37"/>
<path transform="translate(1093,546)" d="m0 0h2l-2 29-1 2-5 1-1-1-1 3h-2l-1 4-2 6-7 12-1 3-5 4-4 8-6 8-5 5-12 14-11 13-1 2h-2v3l-4 4h-2l-1 3h-2l-1 3-5 4-5 6-8 6-2 3h-2v2l-11 7-6 2-2-4 5-16v-4l-7 8-2 2v-3l-2-1h2l2-5v-2l-2 1-1-5-5-2-2-3v-7l2-5 2-1 2-7 5-5 5-3 7-9 28-15 11-6 15-10 12-9 13-11 13-13 11-15z" fill="#BD4922"/>
<path transform="translate(455,678)" d="m0 0 4 2 9 9 19 14 17 12 22 13 16 9 14 6 12 6 26 11 3 2 5 13 12 16-1 2-10-5-9 1-5-3h-8l-9 3-1 3-5 1-10-6-14-7-5-3-9-6-4-2v-2h-3v-2l-5-2-8-6-10-8-4-3-6-1v5l2 7h-2l3 6 3 4-1 2-10-13-9-15-9-21-6-21-4-17z" fill="#6D98A3"/>
<path transform="translate(477,1105)" d="m0 0h15l8 3 5 3 5 8 2 7v30h35v-34l5-5h7l5 4 1 3v32l31-1 2-4 1-28 4-5 2-1h6l5 3 1 2v32l-3 7-5 6-7 4-6 1h-113l-10-2-10-7-4-7-1-5v-26l3-9 5-6 7-4zm6 15-6 4-2 3-1 8v10l3 7 3 3 2 1h12l1-1v-26l-3-6-5-3z" fill="#04080B"/>
<path transform="translate(831,586)" d="m0 0h2l5 10 8 24 4 18 3 21 1 16v38l-4 11-15 27-3 5-3 3-14 29-7 17-3 5-1-3 6-17h-2l1-6 3-23 1-21 3-30 1-9 2-35 3-16 2-4v-7-3-12l6-30z" fill="#0F6591"/>
<path transform="translate(713,1105)" d="m0 0h17l7 3 8 7 4 10v8l-4 6-6 1-7-4-3-11-3-3-6-1-5 3-3 5-1 27h39l5 4 1 5-4 6-3 1h-89l-1 9-7 11-6 4-12 3-8-1-3-4v-6l5-5 9-2 3-3 1-3 1-53 3-4 8-1 6 3 1 6v30h34v-31l3-8 7-8z" fill="#05090C"/>
<path transform="translate(507,545)" d="m0 0 5 5 8 12 7 9 9 10 11 11 18 13 13 8 4 3-6-1-12-7-3-1v-2l-5-2-9-7-2-1v-2l-3-1v-2l-4-2-7-6v-2l-3-1v-2l-4-2-3-2h-2v8l3 3 5 13 7 11 5 9v2h2l8 14 4 6 2 1v3h2l3 5 16 17 11 11v2l3 1v2h3v2h2v2l3 1 2 5 3 1v2l5 2 8 5 4 6 2 8-2 7h-2l1 10 7 7v3h2l7 8 1 2-4-2-7-7-11-8-13-10-17-14-15-14-9-9-9-11-10-14-11-19-8-16-6-17-5-19-2-14-2-25z" fill="#F79F36"/>
<path transform="translate(983,633)" d="m0 0 2 1-8 9-5 3-3 5-2 5h-2l-1 7 1 7 5 3 2 4 3-2-2 6-2 4-1 3v-2l-22 15-15 11-14 11-11 9-14 12-8 8h-2l-2 4-11 10-7 8-9 11-10 13-6 3-3 6h-2l-2 6-4 2-2 3h-2l-2 4-7 12-2 4-1-3 8-20 10-19 2-4h2l2-5 6-10h2l2-5 2-3h2l2-5 7-9 5-8h2l2-4 6-9h2l2-4 7-8 5-5 8-10 20-20 6-5 5-5 11-10 3-4 5-2 10-9 14-11z" fill="#CC6C1C"/>
<path transform="translate(1129,688)" d="m0 0 1 4-1 3h-2l-1 4-3 4-1 4h-2l-2 5-5 6-5 5-4 5h-3l-1 4-3 3h-2l-1 4-5 3-5 6-9 6-7 8-8 7-5 4-5 2-6 4h-2v2l-9 3-6 3-12 5-8 5-8-1-4 2-4 5-8 7-3 5-7 6-3 1v-3h2l2-5 11-12 8-11-5 4-11 11-10 8-12 9-12 7-16 8-5 1 4-3 17-9 16-10 14-12 9-8 11-14 8-13 3-9 27-13 23-11 26-14 10-6 19-13 16-13z" fill="#348DB7"/>
<path transform="translate(771,522)" d="m0 0 2 3 6 14 6 29 2 7 3 26v11l-1 5-3 17-1 19-3 17-2 20-2 1 1 4-3 7-2 1-6-1 3 3v2l3 1 7 12 5 11 3 9 1 9 8 1 1-3h1v6l-3 12-4 1v-3l-5-2 1 13 3 7 1 9v6l-2-2-4-13-4-5-3-12-5-11-6-14-4-14v-3h-2l-3-8-2-3v-12l2-3 1-4 6 7 2 1-1-3v-41z" fill="#6B96A2"/>
<path transform="translate(1064,1105)" d="m0 0h16l10 4 6 7 3 9v54l-3 7-6 7-8 3h-15l-4-5 1-7 5-3 9-2 3-4v-2l-14-1-9-3-8-6-5-10-1-4v-23l4-10 5-6 8-4zm8 15-7 3-2 3-1 6v14l2 6 5 4h12l1-1v-26l-2-5-3-3z" fill="#020608"/>
<path transform="translate(642,500)" d="m0 0h2l4 21 5 24 2 10-3-3-2-5-2-1-2-8h-2v5l-1 4 1 5 1 8 2 6 1 5 4 16 2 9 4 9 5 12 8 18 3 9v8l-4 10-7 5-4-1-12-6 3-1-8-18-8-25-3-15-1-8v-33l3-25 5-24z" fill="#F79F36"/>
<path transform="translate(928,1077)" d="m0 0 7 1 4 4 1 3 1 70h29l2-1 1-29 2-5 4-3h6l6 4 1 4v26l-3 9-8 9-4 2-7 1h-29l-9-3-7-7-4-8v-70l5-6z" fill="#05090C"/>
<path transform="translate(824,1117)" d="m0 0h9l5 5v6l-4 4-11 4-4 5 1 8 2 4 4 2 63 1v-34l5-5 8 1 3 2 1 5v32l-2 7-5 6-7 2h-67l-10-3-10-9-3-7v-17l5-10 8-6z" fill="#04090B"/>
<path transform="translate(620,682)" d="m0 0 4 1 6 7 2 4 4 4 9 14 11 16 9 11 8 10 9 10 5 5 7 8 4 3v2l4 2 29 29 7 8 7 7 7 8 2 2v6l1 3-5-1-1-4h-2l-4-4v-2l-4-2-3-2v-2l-4-1v-2l-3-1v-2l-3-1v-2l-4-1v-2l-5-2-5-5-9-5-4-3-1-3-6-4-4-1-3-5-5-5-10-8-2-3-3-1v-3h-2l-3-5-6-5-6-10-5-6-6-10-9-17-3-8-4-10-2-11z" fill="#C06017"/>
<path transform="translate(1125,699)" d="m0 0 1 3-5 9-8 11-1 3h-2l-2 5-3 5h-2l-2 4-3 4h-2l-2 4-12 12h-2l-2 4-4 2-2 4-13 10h-2v2l-4 1-1 3-18 11-12 7-19 10-5 3-7 3-9 4-12 5-10 3h-2v2l-5 4h-2l2 6-42 9-20 6-3-1 12-7 18-10 11-4 23-12 14-10 9-8 8-7 10-10v3l-9 12-10 11-2 4h-2l1 2 5-3 2-3h2l2-5 10-10 2-4 6-1 7 1 8-5 12-5 10-5h5v-2l9-6 5-2 10-9 7-6 4-4 10-8 4-5h3l1-4 5-4 1-3h3l1-3 4-4 2-3h2l2-4 5-7h2l1-6z" fill="#1777A4"/>
<path transform="translate(1045,596)" d="m0 0 2 1-2 5v2l-6 4v2l-3 3 1 4-3 1h3 2l-1 3-5 4-3 7-1 6-3 5-5 5h-2l-2 5-7 6h-2v3l-6 3-7 6-9 2-5-1-6 7-1-3-3 2-1-5-5-2-2-3v-7l2-5 2-1 2-7 5-5 5-3 7-9 28-15 11-6 15-10z" fill="#C06017"/>
<path transform="translate(830,599)" d="m0 0h1l1 7 2 4 3 15 1 15-2 16-3 39-2 23-4 13-1 17-2 5-1 10 5-9 3-2 1 4-3 3-14 29-7 17-3 5-1-3 6-17h-2l1-6 3-23 1-21 3-30 1-9 2-35 3-16 2-4v-7-3-12l5-24z" fill="#1777A4"/>
<path transform="translate(745,1012)" d="m0 0h17l2 5-1 9 31-1 25 1h18l-1-13 1-1h15l47 2 50 4 105 13 45 7 21 3 20 4 3-1-10-17-1-2 3 1 12 19 1 4h-9l-66-11-19-3-65-8-47-5-35-3-45-3-23-1 1 13-3 2h-20l-16-1h-39l-3-1-1-11h-37l-46 3-40 4-51 6-40 5-44 7-23 4-9 1-7 3h-7l-1-4 6-11 5-10 5-1-12 21 9-1 66-11 37-5 94-11 37-3z" fill="#4587A2"/>
<path transform="translate(555,801)" d="m0 0h10l13 5 14 7 33 15 9 4 21 6 11 4 5 3v2h-9l-26-5-19-3-43-5-33-3-36-5-12-3-1-3 8 1 16 3 43 5h7l-5-4-16-10-2-4 1-4 1-2z" fill="#1A78A4"/>
<path transform="translate(1e3 762)" d="m0 0 2 1-7 14-10 14-12 13-11 9-12 9-23 13-20 10-20 12h-2v2l-12 4-11 1v2l-4 1-2-3 7-7h2v-2h3l1-3 16-10 15-10 20-11 19-11 7-5 5-3 11-7 6-4h3v-2l5-2v-2l5-3 3-1 2-5 2-3h3l1-3 6-4z" fill="#BF5E17"/>
<path transform="translate(737,665)" d="m0 0 7 6 10 11 6 8 1 7h-2v14l4 7v4h2l3 9 3 11 8 17 2 7 3 10 5 7 4 13 1 6 3 3v2h4l2 4 5-8 11-26 10-20 2-1-2 6-12 26-9 24-6 20-4 4-4-8-12-36-11-25-17-34v-3l-4-18-6-23-6-19z" fill="#568492"/>
<path transform="translate(771,522)" d="m0 0 2 3 6 14 6 29 2 21-1 11-2 10-3 12-1 3-2 21-4 36 1 10-1 5-5 1-1-1v-41z" fill="#94B6D4"/>
<path transform="translate(983,633)" d="m0 0 2 1-8 9-5 3-3 5-2 5h-2l-1 7 1 7 5 3 2 4 3-2-2 6-2 4-1 3v-2l-22 15-15 11-14 11-11 9-3 2 1-5 4-3 3-5 4-4 5-6 1-7 1-3 3-1v-10l7-8 2-3h2l2-5 2-4h2l1-7 13-11 14-11z" fill="#EF851B"/>
<path transform="translate(1015,1077)" d="m0 0 7 2 2 2 1 4v80l-3 5-4 2-7-1-4-5v-84l3-3z" fill="#070C0F"/>
<path transform="translate(1130,1117)" d="m0 0 9 1 3 5v44l-1 14-4 8-7 6-8 3-10 1-5-2-2-4 1-6 4-4 9-2 4-3 1-3 1-53z" fill="#050A0C"/>
<path transform="translate(724,711)" d="m0 0 8 5 4 1 3-1 1 3h2l5 9 4 6 3 3 7 16 10 19 4 11 3 4-1 3-3-3-5-11-3-5-1-4-4-3v-3l-2-1-2-5-6-8-4-5-2-1v-2h-3v-2l-3-1-3-3-4 1 5 12h1v5l3 1 2 5 4 4 2 6h2l4 7 2 1 3 6 10 17 8 13 6 12 5 12 4 9 3 10 1 2v6l-2-3-6-16v-4h-2l-5-13-4-7-5-9-4-5-5-4-3-8h-4l-2-6 1-4-2-4-6-8-9-13-5-5-8-11-6-10-4-8v-8h3v-3z" fill="#CB6B1A"/>
<path transform="translate(442,883)" d="m0 0 13 2 16 8 8 6 9 11 8 12v3h-16l-10-2-10-5-9-9-8-14-2-5v-6z" fill="#FDFDFD"/>
<path transform="translate(1159,876)" d="m0 0h4l-2 6-8 16-6 9-8 7-8 4-17 4h-5l2-6 9-16 9-10 10-7 16-6z" fill="#709AA6"/>
<path transform="translate(1163,746)" d="m0 0h3l-1 11-4 12-8 10-8 6-16 7-8 2-1-2 5-16 4-9 5-6 13-9z" fill="#92B5D3"/>
<path transform="translate(895,558)" d="m0 0 2 2 2 16v20l-6 10-11 11-8 7-2-1 1-28 2-9 11-14 6-10z" fill="#1D79A6"/>
<path transform="translate(650,746)" d="m0 0 3 1 7 9v2h4l7 8 1 3 3 1v2l8 4 5 7 5 2 5 5 2 5 7 2v2h3l5 6 2-4-6-7-5-1v-2h-2l-2-5-6-5-7-8-5-4 1-2-3-1v-2l-3-1-1-5h-2l-1-3 4 1 6 7 6 5 5 5 2 4 4 2 29 29 7 8 7 7 7 8 2 2v6l1 3-5-1-1-4h-2l-4-4v-2l-4-2-3-2v-2l-4-1v-2l-3-1v-2l-3-1v-2l-4-1v-2l-5-2-5-5-9-5-4-3-1-3-6-4-4-1-3-5-5-5-10-8-2-3-3-1v-3h-2l-3-5-6-5-4-7z" fill="#CE6F1F"/>
<path transform="translate(984,782)" d="m0 0v3l-4 4h-2l-1 2-10 6h-2v2l-5 3h-2v2l-11 6-21 12-9 6-8 4-5 5h-4l1 2 7-2 5-2h7l2 2-6 5-16 9-10 6h-2v2l-12 4-11 1v2l-4 1-2-3 7-7h2v-2h3l1-3 16-10 15-10 20-11 19-11 7-5 5-3 11-7 6-4h3v-2l5-2v-2z" fill="#CB6B1C"/>
<path transform="translate(914,794)" d="m0 0h3v2l-12 8-4 4-3 1-1 2-11 6-4 1v2l-10 6-13 10-8 6-12 12-15 20-9 14-6 9-2-1 1-8 7-15 5-9 3-4h6l2-4 7-7 6-7 8-7 13-10 7-5 3-3 13-8 14-9 7-3z" fill="#BF4D23"/>
<path transform="translate(934,1019)" d="m0 0h13l8 1 19 1 80 10 45 7 21 3 20 4 3-1-10-17-1-2 3 1 12 19 1 4h-9l-66-11-19-3-65-8-47-5-8-1z" fill="#45849D"/>
<path transform="translate(1031,748)" d="m0 0 3 1-7 9-6 2-1 3-6 4-5 5-3 4h-2l-2 4-7 9-8 7-10 10-10 8-12 9-12 7-16 8-5 1 4-3 17-9 16-10 14-12 9-8 11-14 8-13 3-9z" fill="#588592"/>
<path transform="translate(620,682)" d="m0 0 4 1 6 7 2 4 4 4 9 14 11 16 3 4-2 1v-2l-7-2-3-6v-3l-5-5v-2l-3-1-3-3v-2l-3 1v6l6 11 9 17 2 4-6-5-9-15-7-14-3-8-4-10-2-11z" fill="#CD6E1D"/>
<path transform="translate(467,1024)" d="m0 0 2 1-12 20 9-1 66-11 37-5h8l-3 2-6 2-24 3-44 7-23 4-9 1-7 3h-7l-1-4 6-11 5-10z" fill="#538B9F"/>
<path transform="translate(980,639)" d="m0 0 1 2v14l-2 6-3 15-5 2-1-5-5-2-2-3v-7l2-5 2-1 2-7 5-5 5-3z" fill="#CB6B1B"/>
<path transform="translate(447,766)" d="m0 0h7l9 6 7 8 5 9v2h-7l-10-4-7-7-5-11z" fill="#FDFDFD"/>
<path transform="translate(700,1014)" d="m0 0h19v1l-28 2-16 3-40 4-51 6-12 1 2-2 4-2 85-10z" fill="#4486A1"/>
<path transform="translate(934,1019)" d="m0 0h13l8 1 19 1 80 10 6 1v1h-11l-17-2-3 1-23-3-46-5-26-3z" fill="#4A879E"/>
<path transform="translate(885,722)" d="m0 0 2 1-7 9-6 8h-2l-1 4h-2l-1 4h-2l-2 4-2 5-2 1-4 7-6 7-11 16-9 15-3 8h-2l-1 5-4 9-7 13-1-3 8-20 10-19 2-4h2l2-5 6-10h2l2-5 2-3h2l2-5 7-9 5-8h2l2-4 6-9h2l2-4z" fill="#C05F17"/>
<path transform="translate(846,1085)" d="m0 0h10l4 4 1 2v8l-4 5-2 1h-7l-6-5-1-7 3-6z" fill="#04090B"/>
<path transform="translate(979,1184)" d="m0 0 7 1 5 3 1 2v8l-5 5-2 1h-7l-6-5v-9l4-5z" fill="#03080C"/>
<path transform="translate(528,1184)" d="m0 0h7l6 5v10l-4 4-2 1h-7l-6-5-1-2v-6l5-6z" fill="#040A0D"/>
<path transform="translate(873,1084)" d="m0 0 7 1 4 4 1 8-3 5-4 3h-6l-6-5-2-6 3-6 3-3z" fill="#04090C"/>
<path transform="translate(593,1184)" d="m0 0 7 1 5 4 1 8-5 6-2 1h-7l-5-3-2-8 2-5 3-3z" fill="#050A0D"/>
<path transform="translate(468,1073)" d="m0 0h9l5 3 1 2v8l-4 5-2 1h-7l-5-3-2-3v-8z" fill="#03090D"/>
<path transform="translate(859,513)" d="m0 0h2l-1 10-3 12-7 8-5 5h-3l2-14 5-12 4-5z" fill="#6F99A6"/>
<path transform="translate(552,1184)" d="m0 0h6l6 4 1 2v8l-4 5-2 1h-7l-5-3-1-2v-10l4-4z" fill="#040A0D"/>
<path transform="translate(955,1184)" d="m0 0h6l5 3 2 5-1 7-5 5h-7l-5-3-2-5 1-7z" fill="#060C0F"/>
<path transform="translate(491,1073)" d="m0 0h11l4 3v11l-3 4-3 1h-8l-5-6v-7z" fill="#030A0D"/>
<path transform="translate(837,1012)" d="m0 0h15l47 2 50 4 15 2v1h-9l-8-1h-25l-60-4v-2l-24 1-1 5h-1v-7z" fill="#65919D"/>
<path transform="translate(583,542)" d="m0 0 8 6 7 8v19l-4-2-8-8-3-6-1-16z" fill="#EF841A"/>
<path transform="translate(851,708)" d="m0 0 2 1v7l-4 10-14 25-2 3h-2l-1-5 13-27 5-8z" fill="#124A6F"/>
<path transform="translate(933,834)" d="m0 0 2 1-10 8h-2v2l-11 6-21 7-3-1 12-7 18-10 11-4z" fill="#124A6E"/>
<path transform="translate(1085,674)" d="m0 0 5 1 2 2v7l-5 6-6 1-4-2-1-2v-6l6-6z" fill="#A13F2F"/>
<path transform="translate(492,820)" d="m0 0 8 1 16 3 43 5 1 3h-10l-39-5-18-4z" fill="#295D7D"/>
<path transform="translate(743,628)" d="m0 0 6 1 2 2-1 9-7 6-5-1-2-4 1-7 4-5z" fill="#F08D28"/>
<path transform="translate(511,674)" d="m0 0 6 1 5 5 2 3-1 5-2 2h-7l-5-4-2-4 1-6z" fill="#F7A543"/>
<path transform="translate(1106,820)" d="m0 0h3l-1 3-22 4-34 4h-10l2-2 13-2z" fill="#1E5576"/>
<path transform="translate(984,782)" d="m0 0v3l-4 4h-2l-1 2-10 6h-2v2l-5 3h-2v2l-11 6-21 12-9 6-6 3-2-1 5-4 10-6 11-6 14-9 5-3 11-7 6-4h3v-2l5-2v-2z" fill="#CB6B1B"/>
<path transform="translate(1144,777)" d="m0 0 1 3v3l-6 5-16 6-3-1 3-7 3 1 6-3 2-2h3l1-3z" fill="#759EAB"/>
<path transform="translate(934,1019)" d="m0 0h13l8 1 19 1 8 1v2l7 1v1h-10l-45-5z" fill="#598D9E"/>
<path transform="translate(939,668)" d="m0 0v3l-11 11h-2v2l-8 7-5 6-7 6h-2l-1 3h-2l-1 3h-2l-2 4-7 8v-3l9-11 20-20 6-5 5-5z" fill="#C05F17"/>
<path transform="translate(467,1024)" d="m0 0 2 1-12 20 17-1 9-1-2 2-13 2-7 3h-7l-1-4 6-11 5-10z" fill="#528BA0"/>
<path transform="translate(878,1014)" d="m0 0h21l50 4 15 2v1h-9l-8-1h-25v-2h-8l-16-2-20-1z" fill="#3080A4"/>
<path transform="translate(1031,748)" d="m0 0 3 1-7 9-6 2-1 3-6 4-3 1 2-6h2l1-4 1-3z" fill="#6C98A4"/>
<path transform="translate(760,724)" d="m0 0 4 1 2 9h2l2 10 1 9h-2l-8-16-1-1z" fill="#338DB8"/>
<path transform="translate(1032,1030)" d="m0 0 17 2 19 1 13 2v3l13 1 4 2-13-1-22-4-31-4z" fill="#568D9F"/>
<path transform="translate(723,588)" d="m0 0 7 1 1 2v6l-4 4-5-1-3-4 1-5z" fill="#CC7128"/>
<path transform="translate(958,500)" d="m0 0 3 3 3 18-6 1v-2h-3l-1 2 1-8 2-13z" fill="#C96B20"/>
<path transform="translate(824,871)" d="m0 0v3l-9 14-6 9-2-1 1-8 4-9 5-1 4-4z" fill="#C46419"/>
<path transform="translate(885,603)" d="m0 0 4 2-2 7-5 5h-5l-2-7z" fill="#136894"/>
<path transform="translate(719,1014)" d="m0 0h19l-1 2-49 3h-6l2-2 18-2z" fill="#65919C"/>
<path transform="translate(903,804)" d="m0 0 1 2-6 3-1 2-11 6-4 1v2l-10 6-13 10-5 2 4-5 18-13 13-8 8-5z" fill="#C56519"/>
<path transform="translate(700,1014)" d="m0 0h19v1l-28 2-16 3-17 1 2-2h3v-2z" fill="#3C84A2"/>
<path transform="translate(974,804)" d="m0 0m-1 1m-1 1m-1 1m-1 1m-1 1v3l-8 7-13 8-23 12-3-1 21-11 16-10z" fill="#568491"/>
<path transform="translate(773,520)" d="m0 0h3l4 5v4l2 1 3 11 1 1v12l-2-2-3-12-3-11-5-7z" fill="#6C97A2"/>
<path transform="translate(594,1025)" d="m0 0h19l-4 2-25 3-12 1 2-2 4-2z" fill="#528CA1"/>
<path transform="translate(838,1014)" d="m0 0h24v1h-23l1 13-3 2h-20v-2l20-1v-12z" fill="#6994A0"/>
<path transform="translate(1132,1025)" d="m0 0 3 1 11 18-1 3h-9l-12-3v-1h7l12 2-5-10z" fill="#39809D"/>
<path transform="translate(1106,820)" d="m0 0h3l-1 3-22 4h-4v-2l-2-1z" fill="#265B7A"/>
<path transform="translate(501,1038)" d="m0 0h7l-4 2-12 3-9 1-17 1v-1z" fill="#45859D"/>
<path transform="translate(645,694)" d="m0 0 5 1 11 9 5 3v2l4 2 12 9-1 2-26-20-10-7z" fill="#F7A23D"/>
<path transform="translate(543,939)" d="m0 0 2 1 1 2-18 10-9 6v-3l21-14z" fill="#255A79"/>
<path transform="translate(583,542)" d="m0 0 8 6 4 5-6-2-2 2-2-1-1 7h-1l-1-16z" fill="#F7A543"/>
<path transform="translate(1024,1028)" d="m0 0 14 1 22 3v1h-11l-17-2-3 1-5-1z" fill="#3B809C"/>
<path transform="translate(1e3 762)" d="m0 0 1 2-9 9-9-1 5-4z" fill="#F6A13C"/>
<path transform="translate(492,820)" d="m0 0 8 1 16 3-2 1v2l-14-2-8-3z" fill="#316582"/>
<path transform="translate(772,522)" d="m0 0h2l5 7 3 12h-2l-1 2-4-11-3-7z" fill="#4490B1"/>
<path transform="translate(741,678)" d="m0 0h2l2 5 2 2 1 8 3 5-1 4-2 1z" fill="#719BA9"/>
<path transform="translate(837,1012)" d="m0 0h15l25 1v1l-39 1-1 5h-1v-7z" fill="#297BA0"/>
<path transform="translate(480,1043)" d="m0 0 3 1-6 2-9 1-7 3h-7l-1-4 1 2 6-2 1-1z" fill="#6493A0"/>
<path transform="translate(945,680)" d="m0 0h5l1 4-7 5-4-2 2-4z" fill="#CC6B1A"/>
<path transform="translate(795,883)" d="m0 0 1 2 4 1 2 3v8l-2-3h-2v6h-1l-2-12z" fill="#F7A747"/>
<path transform="translate(569,1028)" d="m0 0h8l-3 2-6 2h-22v-1z" fill="#3781A1"/>
<path transform="translate(800,891)" d="m0 0h1l2 15-2 3-3-5v-10h2z" fill="#F18E27"/>
<path transform="translate(761,731)" d="m0 0 2 2 8 19-2 1-8-16-1-5z" fill="#1777A5"/>
<path transform="translate(915,621)" d="m0 0 1 3-3 7-4 4-3 6-5 7-2-1 7-11z" fill="#D97B24"/>
<path transform="translate(895,1016)" d="m0 0h15l12 2v1h-15l-12-1z" fill="#68939F"/>
<path transform="translate(915,840)" d="m0 0 3 1-18 10-8 4 2-4 15-8z" fill="#B95819"/>
<path transform="translate(620,1022)" d="m0 0h9l-4 2-7 2-15-1v-1z" fill="#3D83A0"/>
<path transform="translate(737,665)" d="m0 0 7 6 1 3-2 1v2h3l-1 4v-3h-4l-4-11z" fill="#508CA5"/>
<path transform="translate(982,1023)" d="m0 0h8l15 2v1l-16 1v-2l-7-1z" fill="#40839E"/>
<path transform="translate(1123,1044)" d="m0 0 13 2h9 3v3h-9l-16-3z" fill="#6A95A0"/>
<path transform="translate(1073,1036)" d="m0 0h8v2l13 1 4 2-13-1-12-2z" fill="#69949F"/>
<path transform="translate(968,1023)" d="m0 0h14l7 2v1h-10l-11-1z" fill="#68949F"/>
<path transform="translate(594,1025)" d="m0 0h19l-4 2-13 1-2-1z" fill="#578C9E"/>
<path transform="translate(901,849)" d="m0 0 2 1-2 3 2 1-12 4-3-1 12-7z" fill="#5D8996"/>
<path transform="translate(514,825)" d="m0 0h11l5 2v1h-12l-4-1z" fill="#1A5174"/>
<path transform="translate(1056,939)" d="m0 0 5 2 11 8h-3l-14-8z" fill="#326680"/>
<path transform="translate(528,826)" d="m0 0 13 1-3 1v2l-13-1z" fill="#3B6D87"/>
<path transform="translate(997,1026)" d="m0 0h10l7 2-1 2-16-2z" fill="#68949F"/>
<path transform="translate(1047,828)" d="m0 0h11l-2 2-4 1h-10l2-2z" fill="#1D5476"/>
<path transform="translate(902,734)" d="m0 0 3 1-15 12 1-4 7-6z" fill="#F08C28"/>
<path transform="translate(958,500)" d="m0 0 3 3 1 9-2-3h-3v-8z" fill="#E2893A"/>
<path transform="translate(796,805)" d="m0 0 1 2h4v7h-3l-2-5z" fill="#6C97A2"/>
<path transform="translate(926,600)" d="m0 0 1 3-5 11-2 3h-2l2-6z" fill="#DD8A3C"/>
<path transform="translate(597,556)" d="m0 0h1v19l-4-2 2-5z" fill="#F7A541"/>
<path transform="translate(567,829)" d="m0 0 5 4h-12v-3z" fill="#5B8C9E"/>
<path transform="translate(746,692)" d="m0 0 4 3 1 7-3 1-2-7z" fill="#6E99A6"/>
<path transform="translate(895,558)" d="m0 0 2 2v6l-5-1 1-5z" fill="#1C6F98"/>
<path transform="translate(1038,829)" d="m0 0h6l-2 1v2h-10l-3-2z" fill="#366A86"/>
<path transform="translate(865,828)" d="m0 0 3 1-12 9-2-1 8-7z" fill="#C76719"/>
<path transform="translate(629,1022)" d="m0 0h11v1l-10 2h-7l2-2z" fill="#68939E"/>
<path transform="translate(892,852)" d="m0 0m-2 1h2l-2 4h-2v2l-5 1 2-4z" fill="#C26D2C"/>
<path transform="translate(1064,826)" d="m0 0 4 1v2l-12 1 1-3z" fill="#366882"/>
<path transform="translate(501,1038)" d="m0 0h7l-4 2-8 2-7-1v-1z" fill="#317EA0"/>
<path transform="translate(813,888)" d="m0 0v3l-4 6-2-1v-5h4v-2z" fill="#CF6F1C"/>
<path transform="translate(1087,823)" d="m0 0 4 1 1 2-10 1v-2l-2-1z" fill="#3C6E89"/>
<path transform="translate(457,1039)" d="m0 0 1 4-1 2 3 2-1 1h-5l1-6z" fill="#46859D"/>
<path transform="translate(1139,677)" d="m0 0h2l-1 6-5 2 1-5z" fill="#205A7D"/>
<path transform="translate(1072,950)" d="m0 0 3 1h-3z" fill="#427387"/>
<path transform="translate(1076,953)" d="m0 0 2 1z" fill="#568491"/>
<path transform="translate(1078,954)" d="m0 0" fill="#568491"/>
<path transform="translate(1075,952)" d="m0 0" fill="#568491"/>
</svg>
