<?xml version="1.0" encoding="UTF-8"?>
<svg version="1.1" viewBox="0 0 1600 900" width="1280" height="1280" xmlns="http://www.w3.org/2000/svg">
<path transform="translate(0)" d="m0 0h1600v900h-1600z" fill="#FCFCFC"/>
<path transform="translate(589,42)" d="m0 0h1l7 41 5 23 10 30 7 19 13 28 15 28 14 23 36 54 26 42 9 16 6 12v2h2l11 23 16 32 11 27 8 22 8 32 3 11 3-9 6-23 15-42 12-25 12-24 26-46 7-10 14-22 9-14 12-19 14-21 12-19 14-23 9-16 9-20 7-14 8-20 12-34 9-36 5-26 2-1 4 10 8 40 2 19v39l-2 19-5 25-6 21-8 22-8 16-5 11 16-13 14-11 16-12 17-12 27-13 13-8 11-6 10-7 12-8 14-11 14-12 13-13 4-5h2l2-4 6-8 4-7 8-11h1v11l-3 36-5 26-10 30-13 30-12 21-11 16-13 16-9 10-7 8-18 18-11 9-11 10-14 11-18 14-15 11-5 5-6 8-8 13-7 8-17 13-27 18-13 8 21-8 32-12 25-11 16-8 25-13 12-6 28-13 37-18 42-23 19-12 17-12 10-8 16-13 11-12 5-3-1 11-7 31-7 21-9 21-12 22-13 19-9 11-9 10-13 13-8 7-13 10-27 18-23 13-2 1 21-2 76-10 13-2v5l-15 3-38 6-40 5-50 5-19 3-38 5-14 3-17 3-27 6-24 6-27 9-20 7-16 8-13 9-14 11-12 11-8 8-9 13-9 15-7 12h-2l-14-25-10-13-8-8v-2l-4-2-12-11-16-11-18-11-15-7-33-11-46-11-28-6-49-7-31-4-52-5-35-5-34-6-10-3v-5l20 4 34 5 28 3 18 2v-2l-5-2-10-6-11-6-17-11-16-12-26-24-11-12-15-20-11-18-10-21-8-20-4-16-5-22-1-2-1-14 6 4 7 8 11 10 13 10 19 13 10 7 7 4 16 10 12 6 12 7 19 9 8 4 12 5 26 12 11 4 4 2 14 8 13 8 27 13 28 12 38 14-4-4-16-11-19-14-15-13v-2h-2l-9-13-4-8-10-9-16-12-19-14-13-11-10-8-13-12-10-9-12-13-9-11-13-17-14-24-12-23-8-20-5-15-5-24-3-26-1-13v-23l5 5 18 27 11 14 15 15 14 11 23 16 15 9 11 6 21 10 18 13 15 10 10 8 10 9 5 3-6-16-6-13-6-19-5-21-3-22v-39l5-39 5-25 5-15z" fill="#F48C1A"/>
<path transform="translate(958,627)" d="m0 0h33l29 3 18 3 28 7 17 5 37 14 29 14 23 12 18 11 16 12 14 12 11 11 11 14 4 5v2l2-1 14 1 23 6 18 7 9 6 2 3-1 4-6 5-10 4-21 5-26 4-57 7-43 4-79 6-78 4-115 3h-161l-106-3-78-4-55-4-70-6-58-7-29-5-21-6-10-5-2-3v-6l9-6 13-5 23-6 19-3 10-13 12-14 8-8 14-11 13-8 23-12 21-9 17-6 8-3 33-11 25-6 26-5 29-3h40l25 2 25 4 16 4 13 5 19 9 12 8 10 8 12 12 1 4-4 1-22-13-20-8-7-3-28-7-23-4-30-2h-28l-31 2-17 2-24 4-25 7-20 7-25 11-22 12-19 12-14 10-14 11-9 7 13-1 53-9 55-8 57-8 35-4 30-3 43-3h68l20 2 5 1h8l16-8 8-2h19l9 3 5 4 4 5 10-1 17-3 11-1h59l51 3 47 5 42 5 32 5 32 4 58 10 16 3h11l-17-14-14-10-22-14-18-10-16-7-15-7-16-6-24-8-22-6-27-6-24-4-14-1h-37l-23 3-21 4-18 6-18 8-17 9-14 10-6 4h-2l1-7 8-11 11-11 15-11 19-11 8-4 22-8 22-5z" fill="#90B6D5"/>
<path transform="translate(549,278)" d="m0 0 5 2 8 7 7 8v2h2l10 19 19 28 10 13 11 14 12 14 9 11 36 36 8 7 20 20 7 8 13 14 7 8 10 11 9 11 14 18 11 17 11 25 8 24 1-3 2 1v-5h1v17h2l2-6 8-19 8-16 8-13 10-13 8-10 9-11 18-18 17-13 20-14 16-9 17-9 5-1 52-20 23-10 16-8 25-13 12-6 28-13 37-18 42-23 19-12 17-12 10-8 16-13 11-12 5-3-1 11-7 31-7 21-9 21-12 22-13 19-9 11-9 10-13 13-8 7-13 10-27 18-23 13-2 1 21-2 76-10 13-2v5l-15 3-38 6-40 5-50 5-19 3-38 5-14 3-17 3-27 6-24 6-27 9-20 7-16 8-13 9-14 11-12 11-8 8-9 13-9 15-7 12h-2l-14-25-10-13-8-8v-2l-4-2-12-11-16-11-18-11-15-7-33-11-46-11-28-6-49-7-31-4-52-5-35-5-34-6-10-3v-5l20 4 34 5 28 3 18 2v-2l-5-2-10-6-11-6-17-11-16-12-26-24-11-12-15-20-11-18-10-21-8-20-4-16-5-22-1-2-1-14 6 4 7 8 11 10 13 10 19 13 10 7 7 4 16 10 12 6 12 7 19 9 8 4 12 5 26 12 11 4 4 2 14 8 3 2 2 6 16 15 11 11 11 9 15 11 20 12 29 16 27 16 21 13 2 1 1-2 5 2v2l-2 1 12 8-6-8-1-5h4l5 4 7 2v-5l-2-1 4-2 2-3h2v-2h3l-9-9-5-4-1-6-11-10-11-9-13-11-10-8-11-9-15-13-15-14-12-11-7-7-7-8-13-16-12-18-11-21-5-12-7-14-6-19-1-4z" fill="#F48D1C"/>
<path transform="translate(1013,43)" d="m0 0 3 4 4 16 6 30 2 19v39l-2 19-5 25-6 21-8 22-8 16-5 11 16-13 14-11 16-12 17-12 27-13 13-8 11-6 10-7 12-8 14-11 14-12 13-13 4-5h2l2-4 6-8 4-7 8-11h1v11l-3 36-5 26-10 30-13 30-12 21-11 16-13 16-9 10-7 8-18 18-11 9-11 10-14 11-18 14-15 11-5 5-6 8-8 13-7 8-17 13-27 18-16 10-16 8-12 7-7 4-17 12-14 11-10 9-13 13-8 10-10 13-10 14-11 20-4 9-1-3-1-9 8-20 8-15 12-17 13-16 13-15 15-16 7-7 7-8 41-41 7-6 7-8 14-14 7-8 12-14 9-11 13-16 13-20 15-25-4 3-17 12-11 8-17 12-3 1v2l-8 6-25 20-3 1v2l-11 9-7 7-8 7-11 11-5 4-9 11-6 7h-2l-2 4-11 14-13 18-6 8-3-1-6 7-3 1v-14l4-9 3-5h2l2-4 10-9 9-16 1-5 5-10 2-3h-2l-2 5-8 11-15 23h-2l-1 4-6 9-8 16h-2l-2 6-6 12-4 10-6 17-6 18-4 14-1 9-2 2-11-41-8-21-9-19-16-27-14-21-12-16-10-13-9-11-11-13-14-17-9-11-12-13-9-11-6-6 1-2 6 6 15-1 3-2-1-9-9-21 1-2 7 8 9 13 7 10 7 8 5 3 5 6 2 3 3-1v2l4 2 3 2 3-2h2v-2h-2v-6l3 3 9 16 6 12v2h2l11 23 16 32 11 27 8 22 8 32 3 11 3-9 6-23 15-42 12-25 12-24 26-46 7-10 14-22 9-14 12-19 14-21 12-19 14-23 9-16 9-20 7-14 8-20 12-34 9-36 5-26z" fill="#CD630B"/>
<path transform="translate(958,627)" d="m0 0h33l29 3 18 3 28 7 17 5 37 14 29 14 23 12 18 11 16 12 14 12 11 11 11 14 10 14 14 21 3 5-10-1-43-8-65-10-34-5-26-3-11-2-38-4-42-5-66-5-8-1-32-2-15-1-31-1 4 15v6h-15l-25-1h-67l4-16 1-2h-38l-90 6-84 9-22 3-49 6-24 4-47 7-24 4-24 5-10 2h-7l7-11 15-24 9-12 12-14 8-8 14-11 13-8 23-12 21-9 17-6 8-3 33-11 25-6 26-5 29-3h40l25 2 25 4 16 4 13 5 19 9 12 8 10 8 12 12 1 4-4 1-22-13-20-8-7-3-28-7-23-4-30-2h-28l-31 2-17 2-24 4-25 7-20 7-25 11-22 12-19 12-14 10-14 11-9 7 13-1 53-9 55-8 57-8 35-4 30-3 43-3h68l20 2 5 1h8l16-8 8-2h19l9 3 5 4 4 5 10-1 17-3 11-1h59l51 3 47 5 42 5 32 5 32 4 58 10 16 3h11l-17-14-14-10-22-14-18-10-16-7-15-7-16-6-24-8-22-6-27-6-24-4-14-1h-37l-23 3-21 4-18 6-18 8-17 9-14 10-6 4h-2l1-7 8-11 11-11 15-11 19-11 8-4 22-8 22-5z" fill="#063B61"/>
<path transform="translate(757,62)" d="m0 0 5 2 11 8 10 9 10 11 5 7 9 19 7 21 5 28 2 12 3 37 1 27 4-23 4-16 6-28 3-20h2l4 11 6 12 8 25 6 26 5 35 1 13v55l-3 7-13 23-10 18-12 23-12 24-11 30-7 21-5 19-3 10-2-1-4-16-8-30-14-37-12-25-18-36v-3h-2l-2-4-2-11-5-15-6-20-7-25-2-10-3-10-1-2 4 2 13 12 12 14 13 18 3 3v-47l1-67 2-84 1-22v-15l-2-10z" fill="#2686B1"/>
<path transform="translate(368,509)" d="m0 0 10 3 11 5 16 5 13 3 24 3 57 5 49 6 26 3 48 8 29 6 32 9 19 7 20 9 18 10 13 10 12 11 8 8 9 14 5 12 4 20 1 9v9l-14 5-5-1-10-15-8-10-14-14-16-12-19-11-16-7-8-3-24-7-30-5-11-1h-26l-27 3-28 6-15 4-19 6-8 3-20 9-30 15-17 11-8 5-3-1 7-7 20-14 26-15 19-9 8-4-16-10-20-12-20-14-17-12-13-11-10-8-18-18-9-12-5-7z" fill="#064872"/>
<path transform="translate(333,282)" d="m0 0 6 4 7 8 11 10 13 10 19 13 10 7 7 4 16 10 12 6 12 7 19 9 8 4 12 5 26 12 11 4 8 16 15 22 12 16 13 12 10 8 18 13 16 9 4 1v2l9 3 17 10 17 8 19 10 16 8 9 5-3 1-33-11-46-11-28-6-49-7-31-4-52-5-35-5-34-6-10-3v-5l20 4 34 5 28 3 18 2v-2l-5-2-10-6-11-6-17-11-16-12-26-24-11-12-15-20-11-18-10-21-8-20-4-16-5-22-1-2z" fill="#689FA7"/>
<path transform="translate(1260,282)" d="m0 0h1l-1 11-7 31-7 21-9 21-12 22-13 19-9 11-9 10-13 13-8 7-13 10-27 18-23 13-2 1 21-2 76-10 13-2v5l-15 3-38 6-40 5-50 5-19 3-38 5-14 3-17 3-27 6-24 6-27 9-13 4v-2l16-8 33-16 26-13 22-12 13-8 14-10 10-8 16-15 9-11 6-8 12-19 8-15 33-16 23-11 21-11 18-10 20-12 23-16 10-8 16-13 11-12z" fill="#2685B1"/>
<path transform="translate(1228,510)" d="m0 0 3 1-9 11-12 14-10 10-8 7-16 13-18 13-15 10-19 12-20 12h-2v2l5 1 25 12 14 8 15 10 16 13 5 4-1 2-11-8-19-12-29-15-17-8-32-12-30-8-23-5-26-3h-27l-27 4-19 5-20 8-16 8-17 12-11 9-10 9-9 11-10 14-5 9-3 4-8-1-6-2 3-23 4-15 5-12 9-14 17-17 18-13 18-10 9-4 13-5 21-7 30-8 37-8 43-7 50-6 66-7 18-2 13-2 18-4 19-6 8-3z" fill="#064872"/>
<path transform="translate(1197,104)" d="m0 0h1v11l-3 36-5 26-10 30-13 30-12 21-11 16-13 16-9 10-7 8-18 18-11 9-11 10-14 11-18 14-15 11-5 5-6 8-8 13-7 8-17 13-27 18-16 10-16 8-12 7-7 4-17 12-14 11-10 9-13 13-8 10-10 13-10 14-11 20-4 9-1-3-1-9 8-20 8-15 12-17 13-16 13-15 15-16 7-7 7-8 41-41 7-6 7-8 14-14 7-8 12-14 9-11 13-16 13-20 16-27 9-11 6-5h2l-1 7-6 19-4 11 1 1 15-13 16-15 17-17 8-7 12-12 7-8 7-7 11-14 10-12 11-15 12-19 15-26 6-12v-12l-3 1 2-4 6-10z" fill="#9C3425"/>
<path transform="translate(1182,128)" d="m0 0h2l1 12-12 23-12 20-14 21-12 15-11 14-12 13-15 16-10 10-8 7-20 20-8 7-15 13-1-3 7-20 5-17-6 4-7 8-5 5-8 7-13 9-11 8-17 12-3 1v2l-8 6-25 20-3 1v2l-11 9-7 7-8 7-11 11-5 4-9 11-6 7h-2l-2 4-11 14-13 18-6 8-3-1-6 7-3 1v-14l4-9 3-5h2l2-4 10-9 9-16 1-5 9-18h2l2-4 8-11 9-12 7-9 7-8 8-10 10-10 14-15 23-23 8-7 13-12 5-5 16-13 14-11 16-12 17-12 27-13 13-8 11-6 10-7 12-8 14-11 14-12 13-13 4-5h2l2-4z" fill="#F38A19"/>
<path transform="translate(1013,43)" d="m0 0 3 4 4 16 6 30 2 19v39l-2 19-5 25-6 21-8 22-8 16-8 15-10 10-8 7-13 12-23 23-6 7h-2l-2 4-4 5-5 5-9 11h-2l-2 5-9 11-12 16-4 6-3 3-1 2h-2l-2 5-8 11-15 23h-2l-1 4-6 9-8 16h-2l-2 6-6 12-4 10-6 17-6 18-2 7-1-4 2-20 4-16 9-26 10-23 21-41 12-19 28-42 28-38 12-17 14-21 12-19 16-28 14-30 11-28 9-32 7-34 3-25-1-25h-2z" fill="#B4411F"/>
<path transform="translate(1260,282)" d="m0 0h1l-1 11-7 31-7 21-9 21-12 22-13 19-9 11-9 10-13 13-8 7-13 10-27 18-23 13-2 1 21-2 76-10 13-2v5l-15 3-38 6-40 5-50 5-19 3-38 5-14 3-17 3-27 6-24 6-27 9-13 4v-2l16-8 33-16 26-13 22-12 7-4 2 1-6 4h-2v2h-2l-1 6 1 4h2v2l13-2 32-16 27-13 22-12 25-14 24-16 21-16 14-12 8-8 8-7 7-7 7-8 10-13 9-12 5-8 4-7 8-13 9-16 1-6-4 2 12-14z" fill="#0C6592"/>
<path transform="translate(519,395)" d="m0 0 4 1 5 12 8 12 12 17 9 12 13 12 10 8 18 13 16 9 4 1v2l9 3 17 10 17 8 19 10 16 8 9 5-3 1-33-11-46-11-28-6-49-7-31-4-52-5-35-5-34-6-10-3v-5l20 4 34 5 28 3 18 2v-2l-5-2-10-6-11-6-17-11-16-12-13-12-2-3 13-1 5-1h6l4-1 2-6 2-5 7 3 11 7 10 4 10 2 4 2 4-1 2 4 6-1 3 3 6-2h3l1-3 9-3 10-5h7l4 2 1-2-10-16-7-12-2-7z" fill="#588D91"/>
<path transform="translate(757,62)" d="m0 0 2 1 2 6 8 19 7 22 9 44 3 23 3 21 5 48 3 47 3 63v39l-1 26v44l-1 6h-2l-1-2-4-35-9-45-9-39-6-15-7-11-7-9v-50l1-67 2-84 1-22v-15l-2-10z" fill="#60A9D1"/>
<path transform="translate(570,296)" d="m0 0h2v2l6 2 8 6 2 1v2l5 2 13 10 12 9 14 11 11 9 12 11 11 9 15 15 6 5 7 8 11 11 7 8 9 11 11 13v2h2l8 12 3 4v2h2l11 18 8 14 14 29 10 30 5 28 2 19-2-3-10-30-10-22-11-16-10-13-9-11-10-11-7-8-10-11-7-8-15-16-16-16-8-7-32-32-9-11-9-10-26-34-19-29z" fill="#FCFCFC"/>
<path transform="translate(1029,295)" d="m0 0v3l-12 21-16 24-13 16-12 14-9 11-15 16-11 11-7 8-8 7-40 40-7 8-10 10-7 8-9 10-9 11-13 17-11 18-9 20-4 13-2 7h-1l-1-13 6-28 7-21 8-18 8-16 9-16 11-16 14-19 10-13 6-8h2l2-4 11-12 5-6 8-7 11-11 8-7 10-9h2v-2l14-11 16-13 4-3h2v-2l18-13 9-6 15-11 9-7z" fill="#FCFCFC"/>
<path transform="translate(1182,128)" d="m0 0h2l1 12-12 23-12 20-14 21-12 15-11 14-12 13-15 16-10 10-8 7-20 20-8 7-15 13-1-3 7-20 5-17-6 4-7 8-3 1 3-17 10-36 3-15 14-9 23-11 13-8 11-6 10-7 12-8 14-11 14-12 13-13 4-5h2l2-4z" fill="#DE5718"/>
<path transform="translate(549,278)" d="m0 0 5 2 8 7 7 8v2h2l10 19 19 28 10 13 11 14 12 14 9 11 36 36 8 7 20 20 7 8 13 14 7 8 10 11 9 11 14 18 11 17 11 25 2 6-1 4-8-21-2-4 3 9 1 11-4-5-13-22-11-16-11-13-7-7-4-5-5-3-11-10-1-6-11-10-11-9-13-11-10-8-11-9-15-13-15-14-12-11-7-7-7-8-13-16-12-18-11-21-5-12-7-14-6-19-1-4z" fill="#CC620C"/>
<path transform="translate(1012,46)" d="m0 0h2l2 16v9l-3 25-7 34-9 32-11 28-14 30-14 25-14 22-14 21-13 18-10 14-15 20-4 4-1-5-3-10-4-1-1 3-2-1 6-10 18-28 12-19 14-21 12-19 14-23 9-16 9-20 7-14 8-20 12-34 9-36 4-22z" fill="#DE5818"/>
<path transform="translate(604,589)" d="m0 0h29l20 1 34 5 9 3 16 8 15 10 10 8 14 7 15 4 12 1-2-6-9-12-8-8-8-5-2-5-4-2-2-3 5 2 13 11 12 12 9 14 5 12 4 20 1 9v9l-14 5-5-1-10-15-8-10-14-14-16-12-19-11-16-7-8-3-24-7-30-5-11-1h-26l-27 3-28 6h-2v-2h2l-1-4-3-1 7-6 14-5 44-4z" fill="#063B61"/>
<path transform="translate(591,642)" d="m0 0h40l25 2 25 4 16 4 13 5 19 9 12 8 10 8 12 12 1 4-4 1-22-13-20-8-7-3-28-7-23-4-30-2h-28l-31 2-17 2-24 4-25 7-20 7-19 8v-2l-7 1-1-5 7-8 1-3 5-3h2v-2l-2-1 40-13 25-6 26-5z" fill="#094A72"/>
<path transform="translate(1228,510)" d="m0 0 3 1-9 11-12 14-10 10-8 7-16 13-18 13-15 10-19 12-20 12h-2v2l5 1 25 12 14 8 15 10 16 13 5 4-1 2-11-8-19-12-29-15-17-8-32-12-18-5-2-1v-2l5-4 5-1 6 1h9l8-4h2l1-3 19-12 13-8 11-8 10-9 5-4 11-14 4-7-8 1 1-2 25-4 18-4 19-6 8-3z" fill="#063B61"/>
<path transform="translate(842,156)" d="m0 0h2l4 11 6 12 8 25 6 26 5 35 1 13v55l-3 7-13 23-10 18-12 23-12 24-11 30-2 5-1-3 10-29 5-11 6-25 7-41 5-44 2-18 3-49v-37l-2-18-3-13v-3h-2z" fill="#0B6492"/>
<path transform="translate(543,408)" d="m0 0 16 8 32 15 33 13 22 8 6 1 17 10 22 13 18 12 16 13 7 7-2 1-2-1v2l-6 5 1 7-10-3-4-4h-2l1 5 6 7-1 2-13-9 3-1-4-3-4 1-26-16-26-15-29-16-20-13-11-8-14-12-17-17-8-7z" fill="#FEBD43"/>
<path transform="translate(757,62)" d="m0 0 2 1 2 6 8 19 7 22 9 44 3 23 1 4v15l-4 3-6 17-9 67-3 36v8l1 3h-2l-8-11-3-5v-49l1-67 2-84 1-22v-15l-2-10z" fill="#79B8DB"/>
<path transform="translate(990,269)" d="m0 0 1 3-5 4-10 15-6 8-8 10-10 19-4 8-1 9v3l3-2 5 1-4 5v3l-8 7h-2v2l-11 9-7 7-8 7-11 11-5 4-9 11-6 7h-2l-2 4-11 14-13 18-6 8-3-1-6 7-3 1v-14l4-9 3-5h2l2-4 10-9 9-16 1-5 9-18h2l2-4 8-11 9-12 7-9 7-8 8-10 10-10 14-15 23-23 8-7 13-12z" fill="#E96D10"/>
<path transform="translate(1077,397)" d="m0 0h2l-2 6-9 16-10 15-10 11-7 8-14 13-18 13-11 7-24 13-23 12-30 15-17 8-5 3h-3v2l-13 6-6 3-7 1-10 7-2-1 12-13 7-7 13-10 21-14 26-16 21-12 18-10 27-16 20-13 16-12 15-13 13-13 8-7z" fill="#CD630B"/>
<path transform="translate(333,282)" d="m0 0 6 4 7 8 9 8-1 2-4-3-5 1 2 4 4 4 12 22 9 14 10 14 9 11 9 10 24 24 8 7 13 10-3 3-4 8-4 2h-10l-1 1-11 1-6-3-11-11-9-11-13-17-11-18-10-21-8-20-4-16-5-22-1-2z" fill="#598E92"/>
<path transform="translate(475,445)" d="m0 0 5 2 18 11 27 14 16 8 19 9 12 6 19 8v3l1 2 10 2v1l-14-1-42-6-31-4-52-5-35-5-34-6-10-3v-5l20 4 34 5 28 3 18 2v-2l-5-2-10-6-11-6-11-7v-2l12 1 2-4 8-2 4-3 2-6h2l-1-4z" fill="#3B7385"/>
<path transform="translate(945,585)" d="m0 0h50l22 3 7 2-1 2h-13l-2-1v2l2 1h-43l-27 4-19 5-20 8-16 8-17 12-11 9-10 9-9 11-10 14-5 9-3 4-8-1-6-2 3-23 4-15 5-12 9-14 17-17 16-12 6-1v3l-12 7-3 5h-2v2l-6 5-5 6h-2l-2 6h2v4l-6 3v6l7-1 9-6 5-5 14-10 21-12 17-8 24-7z" fill="#063B61"/>
<path transform="translate(1045,279)" d="m0 0h2l-1 7-6 19-4 11-6 9-12 26-8 14-13 19-8 10-15 16-8 7-13 13-4 1-3 3-6 2-4-4-7-1-1-5v-3l11-10 7-8 14-14 7-8 12-14 9-11 13-16 13-20 16-27 9-11z" fill="#8C2F24"/>
<path transform="translate(551,444)" d="m0 0 3 1 7 8 8 7 11 9 18 13 16 9 4 1v2l9 3 17 10 17 8 19 10 16 8 9 5-3 1-33-11-46-11-25-5-1-2-6-2v-3l-4-3-26-11-16-8-13-7-4-2 4-1v-3l7-1 3-3h3l1-5h2l-1-4h3z" fill="#48838D"/>
<path transform="translate(313,562)" d="m0 0h9l16 4 19 9 9 7 8 9 10 15 9 12v2h-14l-17-1-13-3-11-7-8-8-9-14-6-14z" fill="#C4D7D7"/>
<path transform="translate(1292,375)" d="m0 0h4l-1 13-2 9-8 16-9 11-10 7-14 7-11 4-10 3v-7l5-18 8-16 7-8 5-4h2v-2h3v-2l17-8z" fill="#74ACC5"/>
<path transform="translate(1284,552)" d="m0 0h7l-1 5-11 23-6 10-9 10-9 7-5 3-17 5-8 2h-10l1-6 10-18 6-9 9-10 8-7h2v-2l11-6 14-5z" fill="#73ABC4"/>
<path transform="translate(928,122)" d="m0 0h2l3 12 3 21v17l-6 12-12 13-12 11-8 7h-1v-42l3-12 13-16 10-15z" fill="#2885B0"/>
<path transform="translate(798,293)" d="m0 0h1l3 63v39l-1 26v44l-1 6h-2l-1-2-4-35-9-45-7-31 1-2 5-1 6-15 2-14 2-18 4-10z" fill="#4699C1"/>
<path transform="translate(882,327)" d="m0 0 4 4 2 8 1 3-3 7-24 36-13 21-12 24-10 19-6 14h-2v-8l-4-2 2-9 8-20 20-40 26-46 5-7 3-1z" fill="#E96B10"/>
<path transform="translate(690,316)" d="m0 0 3 1 2 3 5 3 5 6 2 3 3-1v2l4 2 3 2 3-2h2v-2h-2v-6l3 3 9 16 6 12v2h2l11 23 16 32 9 22v2l-4-2h-4l-2 3-17-32-10-17-16-27-11-16-2-5h-2l-14-19-4-6z" fill="#DB7014"/>
<path transform="translate(442,422)" d="m0 0 7 3 11 7 5 5 10 6 3 6-1 2h-2l-1 6-5 4-9 3-1 2-4 1-8-1-5-2-18-14-12-11-2-3 13-1 5-1h6l4-1 2-6z" fill="#49848E"/>
<path transform="translate(384,476)" d="m0 0 20 4 34 5 28 3 24 4 22 4 16 1 11-6 3-1 1-6-11-6 3-1 25 12 12 6 19 8v3l1 2 10 2v1l-14-1-42-6-31-4-52-5-35-5-34-6-10-3z" fill="#0E6591"/>
<path transform="translate(575,466)" d="m0 0 9 6 17 12 13 7 4 1v2l9 3 17 10 17 8 19 10 16 8 9 5-3 1-33-11-46-11-25-5-1-2-6-2v-3l-2-3 9 2 6 2h6l-2-3-2-4-1-5h-2v-2h-2v-2l-4-1v-2h-2l-2-5-4-2-10-8-4-4z" fill="#377185"/>
<path transform="translate(695,466)" d="m0 0 5 1 5 5 6 5 9 5 7 1 8 8 7 8 11 13 15 20 10 16 11 26 1 7-2-3-8-20 3 12v6l-4-5-13-22-11-16-11-13-7-7-4-5-5-3-11-10-1-6-11-10-11-9-2-3z" fill="#D76A10"/>
<path transform="translate(814,452)" d="m0 0 6 3v11l-9 24-4 17-1 3-3 29-1 2-1 9-2 2-11-41-8-21-9-19 1-3 2 4 2 1-5-14 1-3 8 19 4 8v2l5-1v-5l2 4 5 21 1 3 3-9 6-23z" fill="#DA5518"/>
<path transform="translate(793,704)" d="m0 0h19l9 3 5 4 2 4-1 2-44 8-26 7h-5l2-10 5-6 12-3 14-7z" fill="#074872"/>
<path transform="translate(322,403)" d="m0 0 9 1 10 4 9 8 10 16 6 7h-20l-8-4-8-9-8-14-1-7z" fill="#C5D8D8"/>
<path transform="translate(664,281)" d="m0 0 5 4 8 11-1 3 12 21 4 11-2 7-4 2-13-1-9-10-9-11-6-6 1-2 6 6 15-1 3-2-1-9-9-21z" fill="#D96D0F"/>
<path transform="translate(882,61)" d="m0 0h1v9l-5 23-9 10-10 9-4 1 1-10 4-17 5-12 9-8z" fill="#4D9CC2"/>
<path transform="translate(848,516)" d="m0 0h8l-6 8-13 16-8 11-6 10-9 16-4 9-1-3-1-9 8-20 8-15 12-17 8-5z" fill="#B4401F"/>
<path transform="translate(506,101)" d="m0 0 4 2 16 15 2 2v27l-2 2-8-7-7-7-4-6-2-11v-16z" fill="#F48D1B"/>
<path transform="translate(1216,476)" d="m0 0h2v5l-15 3-38 6-40 5-10 1h-14l2-4 17-3 62-8 29-4z" fill="#0F476B"/>
<path transform="translate(771,456)" d="m0 0 3 4 6 15 4 8v2l5-1v-5l2 4 5 21 1 3 3-4v32l-2 6-2-1-8-29-8-21-9-19 1-3 2 4 2 1-5-14z" fill="#D75518"/>
<path transform="translate(384,476)" d="m0 0 20 4 34 5 28 3 20 3 5 4 6 1v1h-16l-40-5-47-8-10-3z" fill="#0B4368"/>
<path transform="translate(495,616)" d="m0 0h3l3 4 3 1-7 3-17 7-32 16-18 11-11 7-3-1 7-7 20-14 26-15 19-9z" fill="#0E4469"/>
<path transform="translate(1077,397)" d="m0 0h2l-2 6-9 16-10 15-10 11-7 8-14 13-18 13-11 7-24 13-23 12-6 3-2-1 21-12 24-13 16-10 17-12 12-11 13-13 7-8 9-12 9-15 2-6z" fill="#B4401F"/>
<path transform="translate(1071,403)" d="m0 0 1 4-11 18-9 11-14 15-13 13-5 4-2-1 3-4h2v-2h2l2-4 10-11 4-9 3-3 1-7 13-12 9-9z" fill="#DE5717"/>
<path transform="translate(1271,395)" d="m0 0 3 3-4 1v4 2l-8 7-7 6-12 6-5-1 2-6 4-9 2-2 1 1 4-5 12-5 4-1 4 1z" fill="#77B7DB"/>
<path transform="translate(722,218)" d="m0 0h8l4 3v11l-4 6-5 4-2 1h-7l-4-8 1-7 4-6z" fill="#DE7211"/>
<path transform="translate(408,280)" d="m0 0 10 1 8 7 2 5-1 5-5 5h-7l-6-3-5-7v-9z" fill="#F48E1C"/>
<path transform="translate(1182,281)" d="m0 0h9l4 5-1 9-5 6-4 2h-9l-4-4v-9l4-6z" fill="#B23F1F"/>
<path transform="translate(504,535)" d="m0 0h13l31 4 26 3 30 5 3 2-17-1-15-1-27-4-18-2-17-2-9-2z" fill="#0B4167"/>
<path transform="translate(943,440)" d="m0 0h2l1 7h2l2 4-16 9-10 5-11 6 2-4 8-7 3-5 12-11z" fill="#B5411E"/>
<path transform="translate(1197,104)" d="m0 0h1v11l-2 8-2 9-7 9-2 5-1-4v-14l-3 1 2-4 6-10z" fill="#B6421E"/>
<path transform="translate(713,268)" d="m0 0h2l7 16 5 20 2 9 5 21v9l-2-4-9-29-7-25-2-10z" fill="#94BCD6"/>
<path transform="translate(698,163)" d="m0 0 6 1 3 3 1 8-3 5-4 2-7-1-3-3-1-7 3-5z" fill="#D16A0F"/>
<path transform="translate(1137,487)" d="m0 0 18 1 1 3-31 4-10 1h-14l2-4 17-3z" fill="#0F4F75"/>
<path transform="translate(455,487)" d="m0 0 18 2 13 2 5 4 6 1v1h-16l-40-5 3-2v-2h11z" fill="#125379"/>
<path transform="translate(874,396)" d="m0 0h2l-2 5-5 10-1 5-8 14-12 11-1 2h-2l-2 5-4 2 2-4 6-11h2l2-5 15-22 7-10z" fill="#F38919"/>
<path transform="translate(879,534)" d="m0 0 9 2 2 4-6 2-1 3-6 3-7 1-10 7-2-1 12-13 7-7z" fill="#DB6F10"/>
<path transform="translate(634,502)" d="m0 0 19 9 33 17 16 8 3 3-10-2-14-5v-3l-14-5-1-3-6-2-9-6-17-9z" fill="#116892"/>
<path transform="translate(437,528)" d="m0 0 25 2 37 3 7 1-4 3-13-1h-19l-6-2-23-3v-2z" fill="#124A6D"/>
<path transform="translate(809,463)" d="m0 0 1 3-8 27-3 13-2 2-3-7-6-26 1-4 4 8 3 11 2 5 2-3 1-11h3l2-10z" fill="#38768A"/>
<path transform="translate(1176,284)" d="m0 0 2 1-3 5h3v2l4 1 1 5 2 1-1 1h3l2-6 5-3-1 6-6 5-2 1h-9l-4-4v-9z" fill="#9F3625"/>
<path transform="translate(1287,380)" d="m0 0 4 1-1 12-1 2h-2l-1 3-3 1-4-4-3-7h3l-1-4 6 1v-4z" fill="#91B7D6"/>
<path transform="translate(774,83)" d="m0 0 6 1 5 5 3 8-1 3-5-2-1 7-3-4-3-6-2-7z" fill="#4699C1"/>
<path transform="translate(368,509)" d="m0 0 6 2 7 5 4 8 1 7 19 19h-3l-20-20-9-12-5-7z" fill="#0C4469"/>
<path transform="translate(872,322)" d="m0 0h1v15l-10 17-14 25-12 22-1-2 14-28 12-22 8-13 1-3z" fill="#05426B"/>
<path transform="translate(861,358)" d="m0 0 1 2-7 13-9 15-17 33-4 7-1-2 21-42 13-23z" fill="#E1751B"/>
<path transform="translate(823,718)" d="m0 0h2l-2 4-10 7-9 6-8 6h-2l2-4 10-10z" fill="#064872"/>
<path transform="translate(698,163)" d="m0 0 6 1 3 3 1 8-3 5-1 1h-5l2-3-1-3h2l-1-5-6-2-1-3z" fill="#DD5A17"/>
<path transform="translate(717,489)" d="m0 0 5 2 5 4v2l4 2 3 4v3 3l-6-4-11-10z" fill="#EB6F11"/>
<path transform="translate(807,578)" d="m0 0 3 1v9l-7 15h-1v-21h2l1 2z" fill="#E3691B"/>
<path transform="translate(746,373)" d="m0 0 3 1 11 21 9 21-1 3-22-44z" fill="#2B718C"/>
<path transform="translate(842,156)" d="m0 0h2l4 11 6 12 6 19v6l-2-3-9-27-4-6-3 1z" fill="#1E5E7F"/>
<path transform="translate(946,493)" d="m0 0h3v2l3 1-3 3-3 1-1 2-7 2h-6v-4l-2-1 5-3 2 1h4z" fill="#D96D0F"/>
<path transform="translate(1152,641)" d="m0 0 5 2 14 11 11 9-1 2-11-8-19-12z" fill="#1A5577"/>
<path transform="translate(905,357)" d="m0 0 1 3-6 10-5 5-7 8-2 4-6 4 2-4 8-11 9-12z" fill="#F38819"/>
<path transform="translate(722,218)" d="m0 0h8l3 3-3 4-7-1-6 2-4 9-1-4 4-8z" fill="#E97514"/>
<path transform="translate(713,268)" d="m0 0h2l7 16 5 20-1 3-4-10-5-15-4-10z" fill="#7DB7D4"/>
<path transform="translate(750,683)" d="m0 0 4 2 9 9 1 4-4 1-12-7v-3l7 1z" fill="#144A6D"/>
<path transform="translate(921,525)" d="m0 0h2l1 4-12 5-15 5-1-2 16-8z" fill="#164E72"/>
<path transform="translate(890,407)" d="m0 0h2l-1 5-7 8h-2l-2 4-5 6-3-1 6-9 7-7z" fill="#DC6917"/>
<path transform="translate(1078,279)" d="m0 0v3l-25 25-8 7-3 2-3-1 13-11 16-15z" fill="#AF3E20"/>
<path transform="translate(678,526)" d="m0 0 6 1 16 8 5 3-3 1-15-5-7-3 1-2z" fill="#204B68"/>
<path transform="translate(799,503)" d="m0 0 1 4v28l-2 6-1-4-1-22-1-11 2 3z" fill="#AE3E20"/>
<path transform="translate(830,536)" d="m0 0 1 2-9 16-3 5-1-3h-2l2-6 5-8 2 1z" fill="#9F3524"/>
<path transform="translate(384,476)" d="m0 0 17 3-2 3h-2v2l-10-2-3-1z" fill="#12577D"/>
<path transform="translate(728,316)" d="m0 0 2 1 4 17v9l-2-4-5-17z" fill="#94BFD6"/>
<path transform="translate(488,492)" d="m0 0 24 4-4 3-16-1-1-2-4-2z" fill="#186C94"/>
<path transform="translate(809,463)" d="m0 0 1 3-8 27-2 10h-1v-9l1-2 1-11h3l2-10z" fill="#1A678B"/>
<path transform="translate(973,496)" d="m0 0m-1 1m-2 1h2l-1 3-26 13-2-1 21-12z" fill="#B5411F"/>
<path transform="translate(861,358)" d="m0 0 1 2-7 13-7 11-2-1 9-17 4-7z" fill="#ED831A"/>
<path transform="translate(853,367)" d="m0 0 1 3-13 24-4 7-1-2 14-28z" fill="#064B75"/>
<path transform="translate(333,282)" d="m0 0 2 1 3 6 6 7v2l-5-1-3-3-2 2z" fill="#6DA2AB"/>
<path transform="translate(774,547)" d="m0 0h2l3 7 1 6 2 5v5l-2-1-5-11z" fill="#E96C10"/>
<path transform="translate(1284,552)" d="m0 0h7l-1 5-3 2-1-3-13 1 3-1v-2z" fill="#74A6B2"/>
<path transform="translate(693,172)" d="m0 0 1 3 7 2v3 2l-7-1-3-3 1-4z" fill="#DE7312"/>
<path transform="translate(320,757)" d="m0 0h8l-4 2-23 7h-2v-2l11-4z" fill="#86B4CB"/>
<path transform="translate(1077,397)" d="m0 0h2l-2 6-5 9-2-1 2-9z" fill="#B4411E"/>
<path transform="translate(793,704)" d="m0 0h19l4 2-15 1h-8z" fill="#094066"/>
<path transform="translate(842,156)" d="m0 0h2l4 11 1 5-5-4-2 1z" fill="#1E5D81"/>
<path transform="translate(672,375)" d="m0 0 4 2 15 15-3 1-5-6-8-7-3-3z" fill="#E37B1E"/>
<path transform="translate(914,144)" d="m0 0v3l-10 13-3 6-1 5h-1v-7l4-7z" fill="#1D698E"/>
<path transform="translate(716,280)" d="m0 0 3 4 7 22-1 2-4-10-3-8h-1z" fill="#C2D6D7"/>
<path transform="translate(758,396)" d="m0 0 4 3 7 17-1 3-10-20z" fill="#1A5979"/>
<path transform="translate(1034,275)" d="m0 0 3 4-1 6-1 2v3l-4 2z" fill="#E96F12"/>
<path transform="translate(586,471)" d="m0 0 4 2 10 7v1h-5l-8-6z" fill="#E68F36"/>
<path transform="translate(880,418)" d="m0 0 2 1-1 4-6 7-3-1 6-9z" fill="#DD6215"/>
<path transform="translate(1070,411)" d="m0 0 1 3-8 12-2-1 2-5 6-8z" fill="#AB3C20"/>
<path transform="translate(873,336)" d="m0 0 1 2-4 8-6 10h-2l2-5 8-14z" fill="#E67A1A"/>
<path transform="translate(696,571)" d="m0 0 6 1 14 6v2l-10-3-10-5z" fill="#0D4569"/>
<path transform="translate(678,526)" d="m0 0 6 1 6 4-1 2-2 1-7-3 1-2z" fill="#155377"/>
<path transform="translate(526,133)" d="m0 0h1v16l-5-3 3-9z" fill="#DA7213"/>
<path transform="translate(288,773)" d="m0 0 4 5 10 5 6 2v1l-8-1-10-5-2-3z" fill="#85B4CA"/>
<path transform="translate(799,588)" d="m0 0h1v20h-1l-1-5-2-4v-7l3 1z" fill="#FDBD4D"/>
<path transform="translate(798,520)" d="m0 0h1l1 15-2 6-1-4v-16z" fill="#B5411F"/>
<path transform="translate(1243,608)" d="m0 0m-2 1 3 1-1 2-10 3h-8l4-2z" fill="#63A8CE"/>
<path transform="translate(1259,599)" d="m0 0 3 1-1 3-6 4h-3l1-5 5-2z" fill="#5FA6CB"/>
<path transform="translate(921,525)" d="m0 0h2l1 4-9 4-3-1 3-3 6-2z" fill="#1A5C7D"/>
<path transform="translate(829,427)" d="m0 0 6 1-3 7-4-1z" fill="#DE5718"/>
<path transform="translate(561,450)" d="m0 0 4 2 7 7-4 1-7-8z" fill="#EF9B32"/>
<path transform="translate(862,352)" d="m0 0 1 2-8 14-2-2 6-11h2z" fill="#054068"/>
<path transform="translate(1193,291)" d="m0 0 1 4-5 6-3 1 2-7z" fill="#A13624"/>
<path transform="translate(1e3 82)" d="m0 0 2 3-1 10-4 1z" fill="#EA731A"/>
<path transform="translate(918,379)" d="m0 0 2 3-8 8-2-2z" fill="#E97F1B"/>
<path transform="translate(721,291)" d="m0 0 4 4 2 12-2-1-4-13z" fill="#83B1D0"/>
<path transform="translate(404,105)" d="m0 0 2 4 1 8h-1l-1 9h-1z" fill="#FFBE44"/>
<path transform="translate(343,752)" d="m0 0h9l-2 3h-12v-2z" fill="#82B2C7"/>
<path transform="translate(947,354)" d="m0 0 3 1-7 7-4-1z" fill="#EA8116"/>
<path transform="translate(857,106)" d="m0 0 2 2 4-2-2 4-4 3h-2v-5z" fill="#4696BB"/>
<path transform="translate(990,269)" d="m0 0 1 3-5 4-3 4-5 1 5-5z" fill="#E15D15"/>
<path transform="translate(569,460)" d="m0 0h5l3 3 2 5-4-2-6-5z" fill="#DB7928"/>
<path transform="translate(671,527)" d="m0 0h8l4 2-4 2-8-3z" fill="#266281"/>
<path transform="translate(384,479)" d="m0 0 10 2 3 1v2l-10-2-3-1z" fill="#144D6F"/>
<path transform="translate(861,358)" d="m0 0 1 2-5 9-3 1 2-5 3-6z" fill="#E87D1A"/>
</svg>
